<?xml version="1.0" encoding="utf-8"?>
<!-- Generator: Adobe Illustrator 16.0.4, SVG Export Plug-In . SVG Version: 6.00 Build 0)  -->
<!DOCTYPE svg PUBLIC "-//W3C//DTD SVG 1.1//EN" "http://www.w3.org/Graphics/SVG/1.1/DTD/svg11.dtd">
<svg version="1.1" id="Layer_1" xmlns="http://www.w3.org/2000/svg" xmlns:xlink="http://www.w3.org/1999/xlink" x="0px" y="0px"
	 width="238.193px" height="75.621px" viewBox="0 0 238.193 75.621" enable-background="new 0 0 238.193 75.621"
	 xml:space="preserve">
<g>
	<g>
		<path fill="#F9E027" d="M0,22.643v17.609C0,52.315,10.857,62.205,24.486,62.86v10.496c0,1.179,1.101,2.137,2.452,2.137
			c0.646,0,1.258-0.223,1.721-0.626l2.702-2.361c7.097-6.198,16.533-9.61,26.569-9.61h2.564c14.296,0,25.927-10.157,25.927-22.643
			v-17.61C86.422,10.158,74.791,0,60.495,0H25.925C11.631,0-0.001,10.158,0,22.643z"/>
		<g>
			<path fill="#FCD22E" d="M84.368,14.291l-1.004,5.625C80.266,37.353,73.757,45.81,58.15,47.844l-2.799,0.365
				c-10.958,1.429-20.792,6.425-27.694,14.069l-2.628,2.912c-0.171,0.189-0.375,0.344-0.593,0.479v8.052
				c0,1.048,1.102,1.899,2.454,1.899c0.647,0,1.258-0.197,1.723-0.557l2.704-2.1c7.103-5.513,11.421-8.948,21.427-9.648l8.506-0.431
				c14.706-1.271,25.912-9.375,25.172-25.139V22.643C86.422,19.148,86.394,17.158,84.368,14.291z"/>
		</g>
	</g>
	<g>
		<path fill="#231F20" d="M33.732,32.965c0.822,1.04,1.233,2.321,1.233,3.845c0,2.249-0.852,4.002-2.557,5.259
			c-1.705,1.258-4.141,1.886-7.309,1.886H12.587V18.566h11.824c2.95,0,5.247,0.568,6.891,1.705c1.644,1.137,2.466,2.756,2.466,4.86
			c0,1.258-0.314,2.364-0.943,3.319c-0.629,0.956-1.511,1.711-2.648,2.267C31.725,31.176,32.91,31.926,33.732,32.965z
			 M18.426,29.084h5.477c1.281,0,2.249-0.26,2.901-0.78c0.653-0.52,0.979-1.288,0.979-2.303c0-0.991-0.333-1.753-0.998-2.285
			c-0.666-0.531-1.626-0.798-2.883-0.798h-5.477V29.084z M29.017,36.339c0-2.104-1.378-3.156-4.135-3.156h-6.456v6.42h6.456
			C27.639,39.604,29.017,38.515,29.017,36.339z"/>
		<path fill="#231F20" d="M42.854,42.958c-1.657-0.858-2.951-2.05-3.881-3.572c-0.931-1.524-1.396-3.252-1.396-5.187
			c0-1.934,0.465-3.664,1.396-5.187c0.931-1.523,2.225-2.714,3.881-3.572c1.656-0.858,3.524-1.288,5.604-1.288
			c2.055,0,3.85,0.429,5.386,1.288c1.535,0.858,2.653,2.085,3.355,3.681l-4.389,2.357c-1.016-1.789-2.479-2.684-4.389-2.684
			c-1.476,0-2.697,0.484-3.664,1.451c-0.967,0.967-1.451,2.285-1.451,3.954s0.483,2.986,1.451,3.953
			c0.967,0.967,2.188,1.452,3.664,1.452c1.934,0,3.397-0.895,4.389-2.685l4.389,2.394c-0.702,1.548-1.82,2.757-3.355,3.628
			c-1.536,0.87-3.331,1.305-5.386,1.305C46.378,44.245,44.51,43.816,42.854,42.958z"/>
		<path fill="#231F20" d="M79.252,35.794H64.49c0.266,1.209,0.895,2.165,1.886,2.865c0.991,0.702,2.225,1.052,3.7,1.052
			c1.016,0,1.916-0.151,2.702-0.453c0.785-0.303,1.517-0.781,2.194-1.433l3.01,3.264c-1.838,2.104-4.522,3.155-8.052,3.155
			c-2.2,0-4.147-0.429-5.839-1.287c-1.693-0.858-2.999-2.05-3.917-3.572c-0.919-1.524-1.378-3.252-1.378-5.187
			c0-1.91,0.454-3.633,1.36-5.168s2.152-2.732,3.736-3.591c1.583-0.858,3.355-1.288,5.313-1.288c1.91,0,3.639,0.411,5.187,1.233
			c1.547,0.822,2.762,2.001,3.645,3.537s1.324,3.319,1.324,5.35C79.361,34.344,79.324,34.852,79.252,35.794z M66.013,29.52
			c-0.871,0.726-1.402,1.717-1.596,2.974h9.611c-0.194-1.233-0.725-2.218-1.596-2.956c-0.871-0.737-1.935-1.106-3.192-1.106
			C67.959,28.432,66.884,28.794,66.013,29.52z"/>
	</g>
	<g>
		<path fill="#231F20" d="M99.805,42.958c-1.632-0.858-2.908-2.05-3.827-3.572c-0.919-1.524-1.378-3.252-1.378-5.187
			c0-1.934,0.459-3.664,1.378-5.187c0.918-1.523,2.194-2.714,3.827-3.572s3.476-1.288,5.531-1.288c2.055,0,3.893,0.429,5.513,1.288
			c1.62,0.858,2.889,2.049,3.808,3.572c0.918,1.523,1.378,3.253,1.378,5.187c0,1.935-0.46,3.663-1.378,5.187
			c-0.919,1.522-2.188,2.714-3.808,3.572c-1.621,0.858-3.458,1.287-5.513,1.287C103.28,44.245,101.437,43.816,99.805,42.958z
			 M108.909,38.134c0.93-0.979,1.396-2.291,1.396-3.935s-0.466-2.956-1.396-3.936c-0.931-0.979-2.122-1.469-3.573-1.469
			c-1.451,0-2.648,0.49-3.591,1.469c-0.943,0.979-1.415,2.291-1.415,3.936s0.472,2.956,1.415,3.935
			c0.943,0.979,2.14,1.47,3.591,1.47C106.787,39.604,107.978,39.113,108.909,38.134z"/>
		<path fill="#231F20" d="M135.586,29.084h-6.602v14.871h-5.622V29.084h-6.602v-4.643h18.825V29.084z"/>
		<path fill="#231F20" d="M153.702,35.468c0.642,0.75,0.962,1.645,0.962,2.684c0,1.234-0.424,2.316-1.27,3.247
			c-0.847,0.931-2.008,1.65-3.482,2.158s-3.144,0.762-5.005,0.762c-1.523,0-3.022-0.158-4.498-0.472
			c-1.475-0.314-2.841-0.785-4.098-1.415l1.523-3.954c2.055,0.992,4.328,1.488,6.818,1.488c1.329,0,2.375-0.2,3.138-0.599
			c0.761-0.398,1.143-0.961,1.143-1.687c0-0.628-0.267-1.106-0.798-1.433c-0.532-0.326-1.307-0.489-2.322-0.489h-3.989V32.24h3.481
			c0.991,0,1.753-0.157,2.286-0.472c0.531-0.314,0.798-0.774,0.798-1.378c0-0.628-0.333-1.112-0.998-1.451
			c-0.666-0.338-1.613-0.508-2.848-0.508c-1.886,0-3.941,0.448-6.165,1.342L137,25.856c2.708-1.185,5.344-1.777,7.907-1.777
			c1.765,0,3.342,0.218,4.732,0.653c1.391,0.436,2.485,1.07,3.283,1.904c0.798,0.834,1.197,1.808,1.197,2.92
			c0,0.919-0.278,1.747-0.834,2.484c-0.557,0.738-1.319,1.324-2.286,1.759C152.161,34.162,153.062,34.719,153.702,35.468z"/>
		<path fill="#231F20" d="M174.794,32.385c1.306,1.113,1.958,2.708,1.958,4.788c0,2.176-0.738,3.857-2.212,5.042
			c-1.476,1.185-3.567,1.776-6.275,1.776l-9.503-0.036V24.442h5.622v6.238h4.643C171.565,30.705,173.487,31.273,174.794,32.385z
			 M170.26,39.276c0.58-0.483,0.87-1.208,0.87-2.176c0-0.943-0.284-1.632-0.852-2.067c-0.569-0.435-1.409-0.665-2.521-0.689
			l-3.374-0.036v5.658h3.374C168.846,39.99,169.68,39.76,170.26,39.276z M178.856,24.442h5.621v19.513h-5.621V24.442z"/>
		<path fill="#231F20" d="M208.271,38.406c0,1.765-0.665,3.132-1.994,4.099c-1.331,0.967-3.312,1.45-5.948,1.45h-10.41V24.442h9.975
			c2.442,0,4.353,0.441,5.73,1.324c1.378,0.883,2.067,2.122,2.067,3.718c0,0.967-0.248,1.82-0.743,2.557
			c-0.496,0.738-1.203,1.312-2.122,1.723C207.123,34.538,208.271,36.084,208.271,38.406z M195.104,32.458h4.28
			c1.982,0,2.975-0.701,2.975-2.104c0-1.378-0.992-2.067-2.975-2.067h-4.28V32.458z M202.976,37.971c0-0.749-0.242-1.299-0.726-1.65
			c-0.484-0.35-1.245-0.526-2.285-0.526h-4.86v4.316h4.752C201.936,40.11,202.976,39.397,202.976,37.971z"/>
		<path fill="#231F20" d="M228.51,32.385c1.306,1.113,1.959,2.708,1.959,4.788c0,2.176-0.738,3.857-2.213,5.042
			c-1.476,1.185-3.567,1.776-6.274,1.776l-9.504-0.036V24.442h5.623v6.238h4.642C225.281,30.705,227.204,31.273,228.51,32.385z
			 M223.976,39.276c0.58-0.483,0.87-1.208,0.87-2.176c0-0.943-0.284-1.632-0.852-2.067c-0.568-0.435-1.409-0.665-2.521-0.689
			l-3.373-0.036v5.658h3.373C222.562,39.99,223.396,39.76,223.976,39.276z M232.572,24.442h5.621v19.513h-5.621V24.442z"/>
	</g>
</g>
</svg>
