<?xml version="1.0" encoding="utf-8"?>
<!-- Generator: Adobe Illustrator 16.0.4, SVG Export Plug-In . SVG Version: 6.00 Build 0)  -->
<!DOCTYPE svg PUBLIC "-//W3C//DTD SVG 1.1//EN" "http://www.w3.org/Graphics/SVG/1.1/DTD/svg11.dtd">
<svg version="1.1" id="Layer_1" xmlns="http://www.w3.org/2000/svg" xmlns:xlink="http://www.w3.org/1999/xlink" x="0px" y="0px"
	 width="416.252px" height="417px" viewBox="0 88.252 416.252 417" enable-background="new 0 88.252 416.252 417"
	 xml:space="preserve">
<g>
	<path fill="#666666" d="M405.6,469.878l-96.523-96.525c23.927-29.171,38.348-66.534,38.348-107.259
		c0-93.411-75.794-169.205-169.205-169.205c-93.492,0-169.205,75.794-169.205,169.205c0,93.411,75.713,169.205,169.205,169.205
		c40.725,0,78.008-14.34,107.178-38.266l96.524,96.441c6.556,6.557,17.125,6.557,23.681,0
		C412.156,487.003,412.156,476.35,405.6,469.878z M178.218,401.622c-74.811,0-135.609-60.8-135.609-135.528
		c0-74.728,60.799-135.61,135.609-135.61c74.729,0,135.61,60.882,135.61,135.61C313.828,340.822,252.948,401.622,178.218,401.622z"
		/>
</g>
</svg>
